<svg width="1251" height="302" viewBox="0 0 1251 302" fill="none" xmlns="http://www.w3.org/2000/svg"><path d="M1136.72 51.358c-9.53-16.477-25.12-16.477-34.65 0-9.53 16.477-1.74 29.958 17.32 29.958s26.86-13.481 17.33-29.958Z" fill="#34A853"/><path d="M949.996 109.007h-67.988A1.007 1.007 0 0 1 881 108V40.007a1.01 1.01 0 0 1 1.72-.712l67.989 67.993a1.009 1.009 0 0 1-.713 1.719Zm-66.981-2.015h64.551l-64.551-64.553v64.553ZM882.014 177a.991.991 0 0 1-.718-.29.998.998 0 0 1-.292-.718c0-.266.106-.524.294-.715.193-.179.447-.28.71-.28.264 0 .518.101.711.28a1.047 1.047 0 0 1 .22 1.099 1.026 1.026 0 0 1-.544.549 1.023 1.023 0 0 1-.382.075h.001Zm2.859-3.879a1.005 1.005 0 0 1 .154-1.549.999.999 0 0 1 .561-.166 1.01 1.01 0 0 1 .715.292 1.015 1.015 0 0 1 0 1.419.985.985 0 0 1-1.103.226.999.999 0 0 1-.327-.226v.004Zm3.575-3.574a.997.997 0 0 1-.221-1.1 1.001 1.001 0 0 1 .937-.616 1.003 1.003 0 0 1 .99 1.198 1.003 1.003 0 0 1-.271.516.995.995 0 0 1-.715.293.983.983 0 0 1-.713-.293l-.007.002Zm3.587-3.577a1.016 1.016 0 0 1-.214-1.096 1.01 1.01 0 0 1 .924-.627 1.007 1.007 0 1 1-.71 1.723Zm3.574-3.575a1.014 1.014 0 0 1 .712-1.722 1 1 0 0 1 .93.624 1.016 1.016 0 0 1-.22 1.098 1.01 1.01 0 0 1-1.42 0h-.002Zm3.577-3.587a1.003 1.003 0 0 1 .715-1.71c.268 0 .526.104.716.294a1.022 1.022 0 0 1 0 1.42.991.991 0 0 1-.716.292 1.004 1.004 0 0 1-.712-.292l-.003-.004Zm3.574-3.575a1 1 0 0 1 .157-1.547 1.01 1.01 0 0 1 1.564.94 1.011 1.011 0 0 1-.529.786 1.017 1.017 0 0 1-.474.117.984.984 0 0 1-.716-.293l-.002-.003Zm3.588-3.574a1.011 1.011 0 0 1 .155-1.549c.164-.111.358-.172.557-.174a1.007 1.007 0 0 1 .929.624c.05.123.075.254.074.386 0 .268-.106.523-.295.713a1.01 1.01 0 0 1-1.42 0Zm3.574-3.588a1.002 1.002 0 0 1-.062-1.344 1.004 1.004 0 1 1 1.484 1.348.984.984 0 0 1-1.421 0l-.001-.004Zm3.577-3.574a1.006 1.006 0 0 1 0-1.42 1.023 1.023 0 0 1 1.431 0 1.01 1.01 0 0 1 0 1.421 1.017 1.017 0 0 1-1.431 0v-.001Zm3.577-3.575a1.014 1.014 0 0 1 0-1.431 1.032 1.032 0 0 1 1.429 0 1.018 1.018 0 0 1 0 1.431 1.022 1.022 0 0 1-1.429 0Zm3.584-3.574a1.02 1.02 0 0 1 0-1.432 1.007 1.007 0 0 1 1.715.715c0 .268-.106.525-.294.716a1.015 1.015 0 0 1-1.425 0l.004.001Zm3.577-3.587a.988.988 0 0 1-.295-.713 1.006 1.006 0 0 1 .446-.835 1.005 1.005 0 0 1 1.267 1.546.952.952 0 0 1-.707.302.982.982 0 0 1-.715-.302l.004.002Zm3.574-3.578a1.005 1.005 0 0 1 .154-1.549c.167-.11.363-.167.562-.165a1.013 1.013 0 0 1 .933.621 1 1 0 0 1-.096.943.995.995 0 0 1-.837.443.99.99 0 0 1-.714-.293h-.002Zm3.577-3.574a1.014 1.014 0 0 1 0-1.431 1.026 1.026 0 0 1 1.43 0 1.012 1.012 0 0 1 0 1.431 1.039 1.039 0 0 1-.715.293 1.049 1.049 0 0 1-.715-.292v-.001Zm3.587-3.577a1.023 1.023 0 0 1-.275-.91 1.02 1.02 0 0 1 .599-.739c.153-.063.32-.088.485-.072a1 1 0 0 1 .905 1.007 1.004 1.004 0 0 1-.62.932 1 1 0 0 1-1.097-.217l.003-.001Zm3.575-3.587a1.015 1.015 0 0 1-.296-.709 1.003 1.003 0 1 1 1.715.709.981.981 0 0 1-1.419 0Zm3.574-3.575a1.006 1.006 0 0 1 1.098-1.639 1.018 1.018 0 0 1 .628.927.998.998 0 0 1-.624.928c-.123.05-.254.075-.386.074a.959.959 0 0 1-.719-.29h.003Zm3.587-3.574a.997.997 0 0 1 0-1.433 1.026 1.026 0 0 1 1.42 0 1.017 1.017 0 0 1 0 1.43 1.01 1.01 0 0 1-1.42 0v.003Z" fill="#757A89"/><path d="M949.983 109.003a1.008 1.008 0 0 1-1.005-1.008c.003-.269.111-.526.301-.715a1.042 1.042 0 0 1 1.421 0 1.002 1.002 0 0 1-.324 1.642c-.124.053-.257.08-.392.081h-.001Zm-67.978 0a1.01 1.01 0 0 1-1.005-1.008c.003-.269.111-.526.302-.715a1.04 1.04 0 0 1 1.42 0c.188.19.293.448.291.715a.99.99 0 0 1-.621.933c-.123.05-.255.076-.388.075h.001ZM881 171.139a.98.98 0 0 1 .294-.713.998.998 0 0 1 .712-.292.99.99 0 0 1 1.011 1.006.961.961 0 0 1-.073.389.964.964 0 0 1-.221.329 1.001 1.001 0 0 1-1.424 0 1.007 1.007 0 0 1-.295-.713l-.004-.006Zm0-4.855a.987.987 0 0 1 .294-.712 1 1 0 0 1 .715-.299 1.009 1.009 0 0 1 .717.296 1.016 1.016 0 0 1-.328 1.648 1.018 1.018 0 0 1-1.099-.219 1.023 1.023 0 0 1-.294-.714H881Zm0-4.854a.98.98 0 0 1 .294-.713c.189-.189.445-.295.712-.295a1.015 1.015 0 0 1 .72.293.988.988 0 0 1 .291.715.995.995 0 0 1-.297.709.993.993 0 0 1-.713.288 1.009 1.009 0 0 1-.708-.291.995.995 0 0 1-.295-.706H881Zm0-4.867a1.016 1.016 0 0 1 .294-.712 1.016 1.016 0 0 1 .712-.294.978.978 0 0 1 .717.294 1.016 1.016 0 0 1 .221 1.098.994.994 0 0 1-.292.395.994.994 0 0 1-.934.184 1.004 1.004 0 0 1-.419-.255.994.994 0 0 1-.295-.71H881Zm0-4.854a1.006 1.006 0 0 1 1.006-1.011.978.978 0 0 1 .717.293 1.013 1.013 0 0 1 .221 1.101 1.014 1.014 0 0 1-1.644.324 1.01 1.01 0 0 1-.296-.711l-.004.004Zm0-4.858a1.006 1.006 0 1 1 2.013 0 1.006 1.006 0 0 1-2.013 0Zm0-4.857a1.006 1.006 0 0 1 1.006-1.008.98.98 0 0 1 .717.295 1.013 1.013 0 0 1 .221 1.101 1.008 1.008 0 0 1-1.226.579 1.006 1.006 0 0 1-.419-.256 1.001 1.001 0 0 1-.295-.712l-.004.001Zm0-4.857a.983.983 0 0 1 .294-.712c.093-.094.204-.169.326-.22.123-.05.254-.075.386-.074a.99.99 0 0 1 1.011 1.006.965.965 0 0 1-.294.712 1.004 1.004 0 0 1-1.719-.712H881Zm0-4.855a1.005 1.005 0 0 1 1.009-1.012 1.013 1.013 0 0 1 .717.296c.14.142.235.322.273.518a1.01 1.01 0 0 1-.601 1.13 1.012 1.012 0 0 1-1.393-.932v.003l-.005-.003Zm0-4.865a.997.997 0 0 1 1.006-.997.987.987 0 0 1 .932.613.973.973 0 0 1 .078.384.982.982 0 0 1-.29.715 1.012 1.012 0 0 1-1.722-.717l-.004.002Zm0-4.857a1.01 1.01 0 0 1 1.996-.19 1.009 1.009 0 0 1-1.423 1.102 1.009 1.009 0 0 1-.573-.913v.002-.001Zm0-4.854a1.009 1.009 0 0 1 1.997-.198 1.008 1.008 0 1 1-1.996.194v.004H881Zm0-4.858a1.008 1.008 0 0 1 1.204-.985 1.01 1.01 0 0 1 .794.79 1.007 1.007 0 0 1-1.878.67.997.997 0 0 1-.12-.475ZM882.018 177a1 1 0 0 1-.937-.62.991.991 0 0 1-.073-.388c0-.267.106-.524.294-.715a1.04 1.04 0 0 1 1.42 0 1.04 1.04 0 0 1 .22 1.099 1.03 1.03 0 0 1-.544.549 1.018 1.018 0 0 1-.381.075h.001Z" fill="#757A89"/><path d="M881.98 109h-33.973a1.018 1.018 0 0 1-.559-.17 1.009 1.009 0 0 1-.153-1.549l33.974-33.974a1.02 1.02 0 0 1 .715-.307 1.004 1.004 0 0 1 .708 1.73l-32.255 32.256h31.543a1.002 1.002 0 0 1 .934.62 1.004 1.004 0 0 1-.548 1.317 1 1 0 0 1-.386.077Z" fill="#757A89"/><path d="M562.358 34.179c-4.764-8.239-12.56-8.239-17.325 0-4.764 8.238-.866 14.98 8.663 14.98s13.427-6.742 8.662-14.98Z" fill="#4285F4"/><path d="M1013.01 208.504c2.36 4.128 6.22 4.128 8.58 0 2.36-4.127.43-7.504-4.29-7.504s-6.65 3.377-4.29 7.504Z" fill="#EA4335"/><path d="M680.358 137.179c-4.764-8.239-12.56-8.239-17.325 0-4.764 8.238-.866 14.979 8.663 14.979s13.427-6.741 8.662-14.979Z" fill="#FBBC04"/></svg>